<?xml version="1.0" encoding="utf-8"?>
<!-- Generator: Adobe Illustrator 16.0.0, SVG Export Plug-In . SVG Version: 6.00 Build 0)  -->
<!DOCTYPE svg PUBLIC "-//W3C//DTD SVG 1.0//EN" "http://www.w3.org/TR/2001/REC-SVG-20010904/DTD/svg10.dtd">
<svg version="1.0" id="圖層_1" xmlns="http://www.w3.org/2000/svg" xmlns:xlink="http://www.w3.org/1999/xlink" x="0px" y="0px"
	 width="32.779px" height="33.204px" viewBox="0 0 32.779 33.204" enable-background="new 0 0 32.779 33.204" xml:space="preserve">
<g>
	<circle fill="#262B37" cx="16.39" cy="16.814" r="16.39"/>
	<g>
		<path fill="#FFFFFF" d="M30.847,16.598c-0.171-0.017-0.359-0.035-0.506-0.114c-0.461-0.249-0.956-0.388-1.465-0.451
			c-1.141-0.142-2.287-0.156-3.433-0.07c-0.499,0.038-0.998,0.071-1.532,0.108c-0.048,0.351-0.104,0.677-0.136,1.006
			c-0.152,1.545-0.319,3.09-0.44,4.637c-0.168,2.157-0.212,4.318-0.123,6.48c0.032,0.773,0.04,1.549,0.102,2.319
			c0.045,0.568,0.164,1.13,0.246,1.696c0.139,0.956,0.273,1.913,0.414,2.868c0.026,0.177,0.053,0.356,0.107,0.525
			c0.167,0.524-0.031,0.921-0.567,1.105c-0.031,0.011-0.076,0.028-0.083,0.052c-0.083,0.285-0.35,0.3-0.563,0.381
			c-0.206,0.079-0.423,0.13-0.639,0.18c-0.443,0.103-0.729-0.016-0.883-0.442c-0.173-0.481-0.318-0.978-0.416-1.479
			c-0.369-1.89-0.615-3.797-0.725-5.719c-0.068-1.191-0.073-2.386-0.095-3.58c-0.011-0.557-0.01-1.115,0.013-1.671
			c0.047-1.179,0.094-2.359,0.174-3.537c0.083-1.215,0.205-2.427,0.312-3.64c0.021-0.245,0.051-0.49,0.083-0.795
			c-0.367,0.064-0.682,0.109-0.992,0.176c-1.248,0.266-2.494,0.542-3.742,0.808c-0.204,0.043-0.329,0.147-0.425,0.335
			c-0.419,0.818-0.856,1.626-1.281,2.441c-0.898,1.724-1.747,3.47-2.247,5.361c-0.097,0.365-0.331,0.56-0.695,0.686
			c-0.333,0.116-0.661,0.162-1.001,0.162c-0.152,0-0.31-0.024-0.455-0.069c-0.242-0.074-0.398-0.246-0.366-0.507
			c0.055-0.437,0.1-0.88,0.222-1.301c0.35-1.208,0.903-2.333,1.479-3.447c0.385-0.745,0.798-1.476,1.195-2.215
			c0.061-0.113,0.101-0.237,0.186-0.438c-0.452,0.136-0.845,0.229-1.219,0.373c-1.223,0.47-2.452,0.929-3.651,1.453
			c-0.707,0.309-1.367,0.726-2.041,1.107c-0.142,0.081-0.245,0.227-0.377,0.329c-0.312,0.241-0.635,0.318-1.047,0.219
			c-0.311-0.075-0.584-0.18-0.837-0.357c-0.373-0.262-0.455-0.605-0.286-0.956c0.215-0.446,0.538-0.69,1.016-0.811
			c0.381-0.096,0.739-0.288,1.107-0.434c0.67-0.266,1.342-0.526,2.011-0.794c0.415-0.167,0.821-0.355,1.238-0.514
			c0.353-0.135,0.717-0.241,1.076-0.36c0.181-0.06,0.36-0.125,0.542-0.18c0.119-0.036,0.243-0.056,0.364-0.083
			c0.01,0.03,0.02,0.06,0.029,0.089c-0.996,0.39-2,0.762-2.985,1.175c-0.969,0.406-1.92,0.854-2.869,1.345
			c0.049,0.006,0.107,0.034,0.148,0.017c0.709-0.292,1.419-0.583,2.124-0.887c0.202-0.087,0.371-0.259,0.622-0.197
			c0.034,0.008,0.089-0.03,0.121-0.061c0.227-0.218,0.526-0.241,0.81-0.3c0.179-0.037,0.34-0.069,0.442-0.249
			c0.02-0.035,0.154-0.005,0.204-0.005c0.236-0.123,0.455-0.251,0.687-0.348c0.057-0.023,0.158,0.059,0.232,0.09
			c0.033-0.065,0.073-0.145,0.113-0.223c0.025,0.008,0.05,0.016,0.076,0.023c0.002,0.059,0.005,0.117,0.007,0.151
			c0.308-0.093,0.621-0.188,0.941-0.285c0.037-0.087,0.075-0.179,0.113-0.271c0.018,0.004,0.036,0.008,0.054,0.012
			c-0.015,0.077-0.03,0.153-0.05,0.257c0.42-0.069,0.735-0.343,1.122-0.429c0.376-0.083,0.745-0.198,1.179-0.316
			c-0.298,0.523-0.595,1.003-0.85,1.505c-0.251,0.496-0.559,0.973-0.704,1.516c0.027,0.014,0.054,0.026,0.081,0.04
			c0.617-1.066,1.234-2.132,1.86-3.216c0.1,0.063,0.155,0.097,0.234,0.146c0.102-0.21,0.409-0.238,0.429-0.538
			c0.003-0.048,0.163-0.087,0.257-0.129c0,0,0-0.001,0-0.001c0.045-0.051,0.083-0.138,0.136-0.147
			c0.271-0.048,0.545-0.077,0.803-0.11c0.026,0.103,0.055,0.215,0.087,0.34c0.16-0.086,0.227-0.292,0.416-0.146
			c0.016,0.012,0.077-0.034,0.117-0.053c0.187-0.089,0.355-0.205,0.593-0.107c0.096,0.039,0.245-0.054,0.361-0.085
			c0-0.078,0-0.135,0-0.193c0,0,0,0,0,0.001c0.123-0.063,0.238-0.155,0.369-0.184c0.595-0.131,1.194-0.243,1.792-0.364
			c0.22-0.044,0.443-0.14,0.659-0.125c0.304,0.02,0.566-0.083,0.843-0.158c0.271-0.073,0.541-0.157,0.817-0.199
			c0.353-0.054,0.711-0.073,1.068-0.104c0.804-0.07,1.608-0.16,2.415-0.201c0.759-0.039,1.521-0.026,2.281-0.034
			c0.511-0.005,1.023,0.009,1.534-0.016c0.373-0.019,0.674,0.109,0.941,0.343c0.168,0.148,0.359,0.289,0.475,0.473
			c0.2,0.317,0.373,0.657,0.511,1.006C31.198,16.519,31.092,16.624,30.847,16.598z M4.818,19.246
			c-0.247,0.106-0.496,0.209-0.78,0.329c0.037-0.07,0.051-0.137,0.092-0.168c0.554-0.426,1.089-0.875,1.776-1.098
			c0.385-0.126,0.736-0.352,1.114-0.502c0.373-0.147,0.765-0.247,1.141-0.386c0.225-0.083,0.431-0.219,0.656-0.3
			c0.485-0.175,0.973-0.346,1.469-0.483c0.162-0.045,0.351,0.005,0.529,0.018c-0.375,0.174-0.743,0.362-1.125,0.519
			c-0.826,0.338-1.665,0.648-2.488,0.992c-0.565,0.236-1.114,0.511-1.671,0.767C5.294,19.04,5.056,19.144,4.818,19.246z
			 M4.159,20.455c-0.005-0.018-0.018-0.033-0.027-0.049c-0.013,0.015-0.025,0.031-0.038,0.046c0.017,0.01,0.033,0.021,0.049,0.031
			C4.149,20.473,4.162,20.461,4.159,20.455z M4.532,20.191c-0.021-0.024-0.042-0.048-0.063-0.072
			c-0.043,0.043-0.087,0.086-0.13,0.129c0.017,0.02,0.033,0.04,0.05,0.06C4.437,20.269,4.484,20.23,4.532,20.191z M8.758,16.918
			c-0.011-0.021-0.021-0.041-0.031-0.061c0.053-0.017,0.105-0.033,0.159-0.05C8.843,16.845,8.8,16.882,8.758,16.918z M8.919,16.797
			c-0.011,0.003-0.022,0.007-0.033,0.01c0.008-0.006,0.016-0.014,0.023-0.021c0.014-0.005,0.028-0.007,0.042-0.008
			C8.94,16.785,8.93,16.791,8.919,16.797z M8.951,16.778c0.072-0.041,0.144-0.083,0.215-0.124
			C9.139,16.81,9.037,16.771,8.951,16.778z M9.609,16.498c0.251-0.085,0.502-0.17,0.794-0.269
			C10.207,16.462,10.05,16.519,9.609,16.498z M9.905,18.22c-0.007-0.031-0.013-0.063-0.02-0.094
			c-0.062,0.02-0.124,0.039-0.186,0.058c0.004,0.019,0.009,0.038,0.014,0.056C9.777,18.233,9.841,18.227,9.905,18.22z
			 M10.497,16.208c0.309-0.159,0.931-0.285,1.166-0.229C11.291,16.028,10.957,16.263,10.497,16.208z M10.605,17.382
			c0.234-0.035,0.373-0.22,0.583-0.058C11.019,17.433,10.868,17.51,10.605,17.382z M10.838,16.657c-0.008,0-0.017-0.002-0.024-0.002
			c0.005-0.002,0.01-0.005,0.015-0.007L10.838,16.657z M10.845,16.645c-0.002,0.005-0.005,0.007-0.007,0.012l-0.009-0.009
			C10.834,16.646,10.84,16.646,10.845,16.645z M10.845,16.645c0.088-0.22,0.25-0.305,0.504-0.275
			C11.225,16.578,11.035,16.613,10.845,16.645z M11.661,16.244c0.048,0.006,0.095,0.018,0.143,0.029
			c-0.009,0.027-0.017,0.054-0.026,0.081c-0.046-0.017-0.092-0.033-0.136-0.054C11.64,16.299,11.657,16.242,11.661,16.244z
			 M11.804,15.916c-0.008-0.027-0.017-0.054-0.025-0.082c0.46-0.264,0.979-0.348,1.517-0.377
			C12.798,15.61,12.301,15.763,11.804,15.916z M11.985,16.14c0.055-0.019,0.109-0.036,0.165-0.055
			c0.005,0.013,0.011,0.026,0.016,0.04c-0.053,0.023-0.106,0.047-0.159,0.07C12,16.177,11.993,16.158,11.985,16.14z M12.096,19.133
			l0.014,0.026l-0.021,0.005L12.096,19.133z M13.093,18.836c-0.007-0.007-0.017-0.021-0.02-0.019
			c-0.017,0.008-0.032,0.021-0.048,0.031c0.006,0.009,0.012,0.017,0.018,0.025C13.06,18.861,13.077,18.849,13.093,18.836z
			 M13.06,15.806c0.049-0.011,0.098-0.022,0.147-0.033c0.003,0.024,0.006,0.048,0.009,0.072c-0.05,0-0.1,0-0.15,0
			C13.064,15.832,13.062,15.819,13.06,15.806z M13.17,18.71c-0.001-0.013-0.002-0.026-0.003-0.039
			c-0.035,0.002-0.069,0.004-0.104,0.007c0.001,0.014,0.002,0.028,0.003,0.042C13.101,18.717,13.136,18.714,13.17,18.71z
			 M13.469,18.167c-0.02-0.003-0.047-0.018-0.057-0.01c-0.021,0.018-0.033,0.047-0.049,0.071c0.018,0.015,0.035,0.029,0.053,0.044
			C13.434,18.237,13.451,18.202,13.469,18.167z M13.896,16.579c-0.151,0.106-0.255,0.18-0.398,0.279
			C13.51,16.57,13.658,16.56,13.896,16.579z M13.594,15.725c-0.024,0-0.048-0.032-0.072-0.05c0.02-0.021,0.038-0.059,0.059-0.06
			c0.026-0.001,0.054,0.026,0.098,0.051C13.642,15.694,13.618,15.726,13.594,15.725z M14.102,15.152
			c-0.142,0.076-0.249,0.132-0.402,0.214C13.764,15.113,13.92,15.151,14.102,15.152z M13.845,17.563
			c-0.02-0.015-0.041-0.03-0.061-0.045c-0.026,0.042-0.053,0.085-0.079,0.128c0.015,0.01,0.029,0.021,0.044,0.031
			C13.782,17.639,13.813,17.601,13.845,17.563z M13.779,16.229c0.075-0.008,0.15-0.016,0.226-0.024
			c0.003,0.019,0.005,0.037,0.008,0.056c-0.079,0.011-0.159,0.022-0.238,0.033C13.777,16.272,13.778,16.25,13.779,16.229z
			 M14.081,17.205c-0.018-0.018-0.035-0.035-0.052-0.052c-0.039,0.058-0.077,0.116-0.115,0.173c0.02,0.013,0.039,0.026,0.059,0.039
			C14.008,17.312,14.044,17.258,14.081,17.205z M14.104,15.47c0.053-0.123,0.099-0.232,0.155-0.363
			c0.21-0.057,0.432-0.117,0.708-0.191C14.78,15.323,14.515,15.487,14.104,15.47z M14.182,16.615
			c0.051,0.004,0.102,0.008,0.153,0.014c-0.052,0.009-0.104,0.019-0.155,0.028C14.181,16.643,14.182,16.629,14.182,16.615z
			 M14.335,16.628c0.002,0,0.005-0.001,0.008-0.001c0,0,0.001,0.003,0,0.002C14.341,16.629,14.338,16.628,14.335,16.628z
			 M14.345,16.63l-0.001-0.003c0-0.001,0.001-0.002,0.001-0.004C14.345,16.625,14.345,16.627,14.345,16.63z M14.405,16.473
			c-0.02,0.049-0.04,0.1-0.06,0.15c0-0.053,0-0.105,0-0.158C14.365,16.467,14.385,16.47,14.405,16.473z M14.618,14.655
			c0.053-0.113,0.097-0.23,0.161-0.337c0.599-1.005,1.187-2.017,1.804-3.01c0.711-1.145,1.435-2.281,2.177-3.406
			c0.484-0.735,1.017-1.438,1.514-2.166c0.125-0.183,0.181-0.413,0.295-0.605c0.156-0.26,0.335-0.506,0.509-0.755
			c0.386-0.555,0.774-1.108,1.162-1.662c0.301-0.429,0.583-0.873,0.91-1.281c0.273-0.341,0.59-0.652,0.909-0.953
			c0.1-0.095,0.271-0.114,0.41-0.167c0.014,0.02,0.027,0.039,0.041,0.059c-0.501,0.706-1.009,1.408-1.5,2.121
			c-0.306,0.443-0.584,0.906-0.879,1.356c-0.167,0.256-0.348,0.503-0.516,0.758c-0.193,0.293-0.379,0.591-0.567,0.888
			c-0.416,0.661-0.833,1.321-1.246,1.983c-0.23,0.37-0.447,0.749-0.682,1.116c-0.249,0.388-0.52,0.763-0.768,1.152
			C18,10.301,17.67,10.87,17.312,11.421c-0.472,0.727-0.962,1.441-1.445,2.161c-0.165,0.245-0.331,0.489-0.495,0.735
			C15.203,14.572,14.93,14.619,14.618,14.655z M14.758,16.649c0.001-0.023-0.017-0.049-0.035-0.094
			c-0.036,0.04-0.055,0.062-0.074,0.083c0.021,0.018,0.04,0.042,0.064,0.051C14.723,16.693,14.758,16.664,14.758,16.649z
			 M14.928,16.531c-0.011-0.052-0.021-0.103-0.032-0.154c-0.009,0.051-0.019,0.102-0.029,0.153
			C14.887,16.53,14.907,16.531,14.928,16.531z M15.698,16.479c-0.001-0.035-0.003-0.07-0.004-0.105
			c-0.188,0-0.377-0.004-0.565,0.006c-0.021,0.001-0.039,0.082-0.058,0.126c0.032-0.011,0.063-0.032,0.094-0.03
			c0.042,0.003,0.083,0.038,0.123,0.037C15.425,16.507,15.562,16.491,15.698,16.479z M15.504,14.872
			c-0.066,0.083-0.131,0.167-0.197,0.25c-0.031-0.025-0.062-0.05-0.092-0.076c0.075-0.076,0.15-0.151,0.225-0.227
			C15.461,14.837,15.482,14.854,15.504,14.872z M15.469,15.89c-0.001,0.002-0.024-0.011-0.024-0.017c0-0.018,0.006-0.034,0.01-0.051
			c0.018,0.007,0.036,0.015,0.053,0.022C15.495,15.86,15.483,15.876,15.469,15.89z M17.561,14.342
			c-0.205,0.049-0.412,0.089-0.613,0.15c-0.073,0.022-0.126,0.102-0.197,0.141c-0.199,0.11-0.402,0.215-0.605,0.319
			c-0.06,0.031-0.122,0.068-0.186,0.076c-0.103,0.013-0.208,0.003-0.377,0.003c0.087-0.138,0.118-0.247,0.186-0.283
			C16.326,14.458,16.901,14.222,17.561,14.342z M16.006,14c0.083,0.205-0.031,0.289-0.294,0.349
			C15.881,14.23,15.799,14.02,16.006,14z M16.126,15.565c0.013,0.018,0.026,0.035,0.04,0.053c-0.046,0.05-0.091,0.1-0.137,0.149
			c-0.015-0.006-0.03-0.013-0.046-0.02c0.01-0.042,0.01-0.092,0.034-0.123C16.041,15.595,16.089,15.584,16.126,15.565z
			 M16.004,13.991c0.007-0.004,0.012-0.01,0.019-0.015c-0.004,0.007-0.008,0.015-0.011,0.021c-0.002,0-0.003,0.001-0.006,0.001
			C16.005,13.996,16.005,13.995,16.004,13.991z M24.578,1.374c0.231-0.443,0.575-0.795,0.896-1.167
			c0.15-0.174,0.347-0.245,0.566-0.186c0.266,0.072,0.432,0.286,0.444,0.547c0.005,0.119,0.003,0.241-0.019,0.357
			c-0.11,0.599-0.222,1.198-0.345,1.793c-0.028,0.133-0.109,0.255-0.159,0.385c-0.025,0.065-0.063,0.146-0.046,0.205
			c0.151,0.488-0.063,0.94-0.141,1.401c-0.252,1.506-0.531,3.008-0.799,4.511c-0.146,0.822-0.294,1.643-0.436,2.466
			c-0.092,0.537-0.173,1.075-0.261,1.612c-0.007,0.046-0.025,0.091-0.046,0.167c-0.288,0.025-0.58,0.061-0.873,0.071
			c-0.172,0.006-0.214-0.115-0.186-0.272c0.042-0.228,0.077-0.457,0.113-0.685c0.107-0.686,0.216-1.371,0.319-2.057
			c0.03-0.202,0.05-0.407,0.057-0.61c0.003-0.094-0.034-0.19-0.063-0.33c-0.23,0.193-0.121,0.418-0.192,0.615
			C23.23,10.07,23.254,9.9,23.283,9.729c0.022-0.13,0.045-0.259,0.068-0.388c-0.028-0.006-0.057-0.012-0.084-0.018
			c-0.012,0.044-0.026,0.088-0.035,0.134c-0.113,0.543-0.189,1.093-0.342,1.629c-0.066,0.229-0.073,0.476-0.112,0.714
			c-0.038,0.234-0.076,0.468-0.125,0.7c-0.061,0.287-0.133,0.572-0.202,0.858c-0.034,0.142-0.073,0.282-0.303,0.268
			c0.076-0.487,0.158-0.965,0.222-1.445c0.065-0.48,0.169-0.955,0.108-1.45c-0.026-0.209,0.057-0.433,0.09-0.649
			c0.096-0.628,0.19-1.257,0.288-1.885c0.044-0.281,0.095-0.561,0.143-0.846c-0.063,0-0.102-0.006-0.104,0
			c-0.101,0.279-0.204,0.558-0.295,0.84c-0.118,0.363-0.232,0.729-0.336,1.097c-0.051,0.178-0.079,0.363-0.111,0.546
			c-0.089,0.504-0.178,1.007-0.261,1.512c-0.053,0.324-0.09,0.651-0.14,0.976c-0.051,0.333-0.102,0.666-0.164,0.997
			c-0.057,0.298-0.108,0.331-0.501,0.364c0.287-2.487,0.909-4.915,1.154-7.405c-0.066,0.815-0.578,1.407-0.991,2.045
			c-0.589,0.912-1.199,1.811-1.779,2.728c-0.535,0.846-1.059,1.7-1.555,2.57c-0.182,0.318-0.42,0.411-0.752,0.417
			c-0.17,0.003-0.34,0.066-0.511,0.097c-0.135,0.024-0.271,0.039-0.484,0.069c0.222-0.514,0.591-0.865,0.797-1.33
			c-0.201,0.093-0.223,0.135-0.358,0.349c-0.17,0.269-0.299,0.573-0.583,0.753c0.082-0.155,0.158-0.314,0.25-0.463
			c0.217-0.349,0.438-0.697,0.671-1.035c0.075-0.108,0.188-0.188,0.286-0.278c0.012-0.078,0.003-0.168,0.042-0.229
			c0.238-0.376,0.484-0.748,0.734-1.116c0.048-0.07,0.128-0.119,0.193-0.177c0.021,0.017,0.042,0.034,0.062,0.051
			c-0.05,0.063-0.093,0.133-0.15,0.189c-0.084,0.083-0.082,0.155-0.002,0.228c0.202-0.178,0.322-0.411,0.425-0.653
			c0.161-0.168,0.296-0.352,0.399-0.646c-0.306,0.166-0.358,0.4-0.428,0.623c-0.077,0.054-0.154,0.109-0.246,0.174
			c0.034-0.267,0.675-1.304,1.202-1.967c-0.001,0.001-0.002,0.002-0.004,0.003c0.12-0.188,0.239-0.376,0.358-0.564l-0.007-0.007
			c0.004,0,0.007,0,0.011,0c0,0.001,0,0.001-0.001,0.002c0.082,0.013,0.2,0.055,0.225,0.023c0.085-0.11,0.137-0.246,0.2-0.374
			c0.032-0.013,0.079-0.017,0.095-0.042c0.197-0.314,0.383-0.635,0.584-0.947c0.246-0.382,0.501-0.757,0.752-1.136
			c0.03-0.046,0.053-0.097,0.042-0.196c-0.061,0.03-0.139,0.046-0.178,0.094c-0.103,0.127-0.194,0.266-0.279,0.406
			c-0.069,0.114-0.147,0.183-0.286,0.125c0,0,0,0,0,0.001c0,0,0-0.001,0-0.001h0c0.158-0.196,0.311-0.395,0.476-0.584
			c0.045-0.052,0.125-0.074,0.189-0.109v0c0,0,0,0,0,0c0.171,0.089,0.211-0.1,0.263-0.163c0.263-0.322,0.497-0.667,0.739-1.006
			c0.003-0.004-0.005-0.022-0.013-0.029c-0.007-0.008-0.02-0.009-0.031-0.014c0.335-0.499,0.668-0.998,1.005-1.494
			c0.124-0.182,0.259-0.356,0.384-0.538c0.011-0.016-0.013-0.054-0.022-0.085c0.081-0.038,0.183-0.059,0.234-0.121
			C24.338,1.75,24.475,1.569,24.578,1.374z M17.923,11.435c-0.076,0.011-0.132,0.042-0.168,0.087
			c-0.176,0.222-0.346,0.447-0.518,0.671c0.002-0.002,0.004-0.004,0.006-0.006c-0.081,0.166-0.162,0.331-0.243,0.497
			C17.448,12.363,17.604,11.844,17.923,11.435z M17.158,15.846c0.027-0.014,0.055-0.038,0.082-0.037
			c0.021,0.001,0.042,0.033,0.08,0.065c-0.051,0.018-0.082,0.04-0.105,0.033C17.191,15.902,17.176,15.868,17.158,15.846z
			 M17.694,16.062c0.023-0.257-0.175-0.163-0.289-0.206C17.499,15.934,17.534,16.106,17.694,16.062z M18.188,15.952
			c-0.109-0.253-0.275-0.065-0.425-0.093c0.019,0.072,0.033,0.126,0.048,0.185C17.937,16.013,18.054,15.984,18.188,15.952z
			 M18.104,11.153c-0.146-0.043-0.199,0.043-0.181,0.211C17.984,11.293,18.044,11.223,18.104,11.153z M18.504,15.899
			c-0.038-0.042-0.068-0.087-0.077-0.083c-0.037,0.016-0.067,0.046-0.1,0.072c0.022,0.026,0.044,0.073,0.065,0.073
			C18.426,15.96,18.458,15.927,18.504,15.899z M18.35,14.458c0.059-0.005,0.117-0.009,0.176-0.013
			c0.002,0.011,0.004,0.022,0.006,0.034c-0.058,0.013-0.116,0.025-0.173,0.038C18.355,14.497,18.353,14.478,18.35,14.458z
			 M18.933,15.873c-0.043-0.042-0.091-0.082-0.137-0.122c-0.019,0.028-0.038,0.057-0.056,0.084c0.053,0.03,0.105,0.06,0.159,0.086
			C18.902,15.923,18.935,15.876,18.933,15.873z M18.757,14.413c0.089-0.017,0.178-0.033,0.267-0.049
			C19,14.572,18.873,14.479,18.757,14.413z M19.915,8.26c-0.117,0.064-0.184,0.164-0.263,0.253c-0.053,0.061-0.122,0.108-0.184,0.16
			c-0.052,0.172-0.105,0.343-0.157,0.515c-0.185,0.11-0.294,0.265-0.295,0.487c0.11-0.155,0.343-0.234,0.298-0.485
			c0.033-0.008,0.083-0.005,0.098-0.025C19.611,8.883,19.789,8.588,19.915,8.26z M19.025,14.354
			c0.011,0.001,0.022,0.002,0.033,0.004c-0.008,0.001-0.016,0.003-0.023,0.004c-0.003,0-0.007,0.001-0.011,0.002
			C19.025,14.36,19.025,14.357,19.025,14.354z M25.521,13.644c0.509-0.004,1.02,0.063,1.529,0.101
			c0.177,0.013,0.355,0.03,0.531,0.059c0.163,0.027,0.343-0.015,0.437,0.22c0.032,0.081,0.288,0.082,0.443,0.1
			c0.129,0.016,0.262,0.003,0.393,0.003c0,0.029,0,0.059,0,0.087c-0.402,0.014-0.805,0.042-1.207,0.041
			c-0.603-0.001-1.206-0.022-1.808-0.035c0-0.003,0-0.005,0-0.009c-0.274,0-0.548,0-0.822,0c-0.002-0.016-0.005-0.032-0.007-0.048
			c0.157-0.013,0.314-0.026,0.549-0.047c-0.333-0.204-0.608-0.07-0.873-0.064c-0.025,0-0.047,0.076-0.081,0.132
			c-0.083-0.122-0.185-0.147-0.348-0.133c-0.673,0.058-1.353,0.054-2.025,0.117c-0.43,0.041-0.852,0.165-1.279,0.242
			c-0.331,0.06-0.661,0.133-1.003,0.072c-0.296-0.052-0.595-0.084-0.893-0.125c0.308-0.058,0.616-0.109,0.922-0.178
			c0.304-0.069,0.629-0.051,0.911-0.222c0.056-0.034,0.139-0.026,0.21-0.032c0.506-0.042,1.012-0.088,1.518-0.125
			c0.324-0.023,0.649-0.03,0.973-0.049C24.235,13.714,24.877,13.649,25.521,13.644z M19.82,8.109
			c0.044-0.066,0.088-0.132,0.133-0.198C19.952,8.006,19.981,8.122,19.82,8.109z M20.243,7.751
			c-0.096,0.047-0.191,0.094-0.287,0.141c-0.011-0.021-0.029-0.046-0.023-0.055c0.202-0.313,0.407-0.623,0.612-0.934
			c0.025,0.014,0.049,0.028,0.074,0.042c-0.126,0.223-0.256,0.442-0.376,0.668C20.224,7.649,20.239,7.704,20.243,7.751z M19.96,7.9
			c-0.003,0.004-0.005,0.008-0.008,0.011c0-0.006,0-0.012,0-0.018c0.001,0,0.002-0.001,0.003-0.001
			C19.958,7.895,19.959,7.897,19.96,7.9z M20.244,7.761c0-0.003-0.001-0.006-0.001-0.009c0.002-0.001,0.004-0.002,0.007-0.003
			C20.248,7.752,20.246,7.757,20.244,7.761z M23.156,34.972c-0.317-0.512-0.308-1.112-0.488-1.664
			c-0.104-0.32-0.123-0.67-0.176-1.007c-0.02-0.127-0.028-0.256-0.042-0.385c-0.028-0.276-0.184-0.558,0.055-0.821
			c0.031-0.034,0.015-0.115,0.012-0.175c-0.013-0.298-0.102-0.582-0.076-0.895c0.039-0.455-0.039-0.919-0.045-1.379
			c-0.011-0.718,0.034-1.438-0.019-2.152c-0.041-0.55,0.044-1.096-0.031-1.651c-0.054-0.395,0.041-0.81,0.017-1.226
			c-0.016-0.272,0.042-0.569,0.049-0.859c0.019-0.777,0.049-1.555,0.091-2.332c0.02-0.357,0.078-0.713,0.121-1.069
			c0.053-0.437,0.111-0.872,0.161-1.309c0.062-0.533,0.121-1.066,0.174-1.601c0.009-0.086-0.019-0.177-0.032-0.279
			c-0.232,0.03-0.432,0.055-0.632,0.08c-0.128,0.016-0.228,0.062-0.231,0.214c-0.005,0.177-0.002,0.354-0.023,0.53
			c-0.045,0.393-0.103,0.783-0.155,1.175c-0.031-0.003-0.062-0.006-0.092-0.009c0.018-0.251,0.036-0.503,0.054-0.754
			c0.019-0.266,0.048-0.532,0.052-0.798c0.001-0.1-0.058-0.201-0.087-0.294c-0.205,0.023-0.358,0.04-0.54,0.061
			c-0.031,0.186-0.066,0.367-0.089,0.55c-0.027,0.217-0.046,0.436-0.064,0.654c-0.033,0.4-0.061,0.8-0.093,1.2
			c-0.014,0.168-0.021,0.337-0.05,0.502c-0.063,0.345-0.17,0.686-0.202,1.033c-0.049,0.533-0.052,1.071-0.068,1.606
			c-0.003,0.113,0.062,0.24,0.03,0.338c-0.104,0.324-0.08,0.644-0.07,0.976c0.013,0.444-0.062,0.89-0.054,1.339
			c0.01,0.544-0.038,1.09-0.039,1.635c0,0.664,0.018,1.327,0.034,1.991c0.014,0.562,0.07,1.125,0.047,1.684
			c-0.024,0.573,0.059,1.134,0.103,1.699c0.025,0.325,0.088,0.649,0.157,0.969c0.087,0.412,0.256,0.814,0.28,1.228
			c0.028,0.473,0.342,0.795,0.436,1.235c0.247-0.138,0.294-0.298,0.224-0.504c-0.051-0.146-0.104-0.292-0.142-0.442
			c-0.012-0.048,0.018-0.108,0.042-0.235c0.137,0.236,0.232,0.402,0.363,0.627c0-0.194,0.041-0.337-0.007-0.44
			c-0.271-0.588-0.318-1.23-0.462-1.847c-0.068-0.292-0.069-0.599-0.1-0.899c0.035,0,0.096-0.009,0.099,0.001
			c0.14,0.419,0.081,0.885,0.306,1.284c-0.111,0.236,0.04,0.4,0.158,0.573c0.06,0.088,0.17,0.184,0.164,0.269
			c-0.038,0.489,0.307,0.834,0.444,1.254c0.036,0.11,0.105,0.216,0.183,0.303c0.041,0.045,0.132,0.046,0.201,0.066
			C23.122,35.007,23.139,34.99,23.156,34.972z M20.673,14.837c0.112-0.017,0.225-0.034,0.337-0.051
			c0.002,0.014,0.005,0.027,0.008,0.041c-0.114,0.023-0.229,0.046-0.343,0.068C20.675,14.876,20.674,14.857,20.673,14.837z
			 M20.958,6.336c-0.064,0.134-0.128,0.269-0.192,0.403C20.746,6.554,20.766,6.395,20.958,6.336z M20.965,6.324l0.007,0.006
			c-0.005,0.001-0.008,0.005-0.013,0.006C20.96,6.333,20.963,6.328,20.965,6.324z M20.964,6.324
			c0.004-0.002,0.004-0.004,0.007-0.006c0,0.004,0,0.008,0,0.012C20.972,6.33,20.965,6.324,20.964,6.324z M20.972,6.317
			c0.001-0.083,0.001-0.167,0.002-0.251C21.057,6.152,21.107,6.238,20.972,6.317z M21.363,25.234
			c-0.013-0.009-0.025-0.017-0.038-0.025c0.021-0.024,0.042-0.048,0.063-0.071C21.38,25.17,21.372,25.202,21.363,25.234z
			 M21.358,24.044c-0.008-0.036-0.016-0.072-0.024-0.108c0.016-0.002,0.032-0.004,0.047-0.007c0.002,0.035,0.005,0.069,0.006,0.104
			C21.387,24.037,21.369,24.041,21.358,24.044z M21.339,26.229c-0.002-0.045-0.004-0.074-0.005-0.103
			c0.017,0.012,0.034,0.023,0.051,0.035C21.374,26.178,21.362,26.195,21.339,26.229z M21.335,26.656
			c0.026-0.017,0.053-0.033,0.08-0.049c0.011,0.018,0.022,0.036,0.04,0.065c-0.029,0.013-0.055,0.03-0.083,0.032
			C21.361,26.705,21.348,26.673,21.335,26.656z M21.462,27.489c-0.025,0.048-0.049,0.097-0.074,0.145
			c-0.017-0.008-0.034-0.018-0.052-0.026c0.024-0.049,0.049-0.097,0.073-0.146C21.427,27.471,21.444,27.48,21.462,27.489z
			 M21.364,27.181c0.008-0.016,0.016-0.033,0.024-0.049c0.02,0.007,0.038,0.014,0.057,0.021c-0.008,0.018-0.016,0.037-0.024,0.055
			C21.402,27.199,21.383,27.189,21.364,27.181z M21.433,23.269c-0.016-0.014-0.032-0.027-0.05-0.043
			c0.013-0.012,0.025-0.023,0.038-0.035c0.01,0.017,0.022,0.032,0.028,0.05C21.451,23.249,21.439,23.26,21.433,23.269z
			 M21.476,22.982c-0.029-0.05-0.071-0.096-0.084-0.15c-0.012-0.047,0.009-0.102,0.015-0.153c0.024-0.002,0.048-0.004,0.072-0.006
			c0.023,0.093,0.047,0.187,0.07,0.281C21.524,22.962,21.5,22.972,21.476,22.982z M21.408,25.117
			c-0.006,0.007-0.013,0.014-0.019,0.021c0.002-0.01,0.005-0.021,0.008-0.031L21.408,25.117z M21.408,25.117l-0.011-0.01
			c0.005-0.018,0.01-0.035,0.016-0.053C21.411,25.075,21.409,25.096,21.408,25.117z M21.427,29.072
			c-0.014-0.051-0.035-0.084-0.026-0.104c0.009-0.021,0.047-0.028,0.072-0.042c0.008,0.02,0.027,0.044,0.022,0.059
			C21.485,29.011,21.46,29.031,21.427,29.072z M21.42,30.227c0.061,0.012,0.122,0.023,0.183,0.035
			c-0.005,0.023-0.01,0.047-0.015,0.071c-0.06-0.017-0.12-0.033-0.181-0.049C21.412,30.265,21.417,30.246,21.42,30.227z
			 M21.421,23.646c0.009-0.004,0.021-0.013,0.028-0.01c0.007,0.002,0.01,0.017,0.014,0.026c-0.007,0.009-0.013,0.018-0.02,0.027
			C21.436,23.674,21.428,23.66,21.421,23.646z M21.422,29.653c0.046-0.006,0.094-0.011,0.14-0.017
			c0.003,0.013,0.006,0.026,0.008,0.039c-0.046,0.01-0.093,0.02-0.14,0.029C21.428,29.687,21.424,29.67,21.422,29.653z
			 M21.454,22.518c-0.006-0.018-0.021-0.042-0.015-0.052c0.009-0.015,0.034-0.021,0.052-0.031c0.006,0.02,0.021,0.043,0.015,0.058
			C21.5,22.506,21.472,22.51,21.454,22.518z M21.512,20.918c0.034,0.037,0.09,0.075,0.087,0.11
			c-0.009,0.128-0.041,0.255-0.076,0.442C21.363,21.256,21.5,21.083,21.512,20.918z M21.505,30.568
			c0.021,0.023,0.041,0.045,0.061,0.068c-0.026,0.02-0.042,0.033-0.059,0.046c-0.017-0.024-0.038-0.046-0.046-0.073
			C21.458,30.602,21.489,30.582,21.505,30.568z M21.523,22.073c0.021,0.032,0.047,0.063,0.044,0.067
			c-0.021,0.024-0.049,0.042-0.076,0.062c-0.01-0.02-0.034-0.045-0.028-0.06C21.473,22.117,21.5,22.098,21.523,22.073z
			 M21.536,20.191c0.039,0.029,0.077,0.059,0.115,0.087c-0.032,0.086-0.064,0.173-0.096,0.259c-0.029-0.015-0.058-0.03-0.086-0.045
			c0.011-0.054,0.022-0.108,0.034-0.162C21.513,20.285,21.525,20.239,21.536,20.191z M21.55,31.27
			c-0.024-0.15-0.049-0.299-0.077-0.467C21.716,30.976,21.716,30.977,21.55,31.27z M21.531,20.72
			c-0.007,0.055-0.014,0.111-0.021,0.167c-0.011-0.055-0.023-0.111-0.034-0.167C21.495,20.721,21.513,20.721,21.531,20.72z
			 M21.569,21.865c-0.026,0.006-0.051,0.011-0.077,0.018c0-0.055,0-0.11,0-0.165c0.012-0.001,0.024-0.003,0.036-0.005
			C21.542,21.764,21.555,21.814,21.569,21.865z M21.514,20.905c0,0.004-0.001,0.009-0.002,0.013
			c-0.001-0.002-0.004-0.004-0.005-0.006l0.001-0.001c0.001-0.008,0.002-0.016,0.003-0.024
			C21.512,20.893,21.513,20.899,21.514,20.905z M21.787,18.592c0.11,0.536-0.134,1.035-0.137,1.559
			c-0.031,0.004-0.063,0.007-0.094,0.011c-0.012-0.06-0.042-0.122-0.034-0.179c0.049-0.315,0.111-0.627,0.163-0.942
			C21.71,18.891,21.722,18.738,21.787,18.592z M21.55,31.271L21.55,31.271l-0.001,0L21.55,31.271z M21.55,31.27v0.001V31.27
			L21.55,31.27z M21.639,5.37c-0.022-0.233,0.009-0.441,0.251-0.551c0.002,0.046,0.015,0.109-0.005,0.124
			C21.734,5.049,21.646,5.185,21.639,5.37z M21.876,18.393c0.005,0.011-0.035,0.059-0.056,0.061c-0.024,0.001-0.05-0.03-0.083-0.053
			c0.027-0.033,0.047-0.057,0.067-0.081C21.83,18.343,21.862,18.364,21.876,18.393z M21.898,4.814
			c-0.003,0.001-0.004,0.003-0.007,0.004c0-0.004,0-0.008,0-0.012c0.005-0.002,0.01-0.004,0.016-0.007
			C21.903,4.805,21.9,4.81,21.898,4.814z M21.995,4.762c-0.03,0.013-0.06,0.025-0.089,0.038c0.016-0.028,0.031-0.056,0.046-0.083
			C21.966,4.731,21.98,4.747,21.995,4.762z M22.052,4.595c0.012-0.05,0.023-0.099,0.035-0.15c0.01,0.049,0.021,0.099,0.032,0.148
			C22.096,4.594,22.074,4.594,22.052,4.595z M22.082,4.424c0.003,0.002,0.006,0.002,0.009,0.003
			c-0.001,0.001-0.002,0.002-0.002,0.004l0,0.001c-0.001,0.004-0.002,0.008-0.003,0.013C22.085,4.438,22.083,4.431,22.082,4.424z
			 M22.597,4.16C22.597,4.16,22.598,4.16,22.597,4.16L22.597,4.16C22.597,4.16,22.597,4.16,22.597,4.16
			c-0.082,0.04-0.168,0.073-0.246,0.12c-0.086,0.051-0.113,0.208-0.26,0.147c0.051-0.077,0.104-0.154,0.154-0.231
			C22.349,4.037,22.468,4.051,22.597,4.16z M22.654,3.792c-0.03,0.015-0.056,0.027-0.082,0.04c-0.005-0.02-0.019-0.045-0.012-0.058
			c0.008-0.015,0.036-0.025,0.055-0.025C22.626,3.749,22.638,3.772,22.654,3.792z M22.939,3.417
			c-0.039,0.067-0.078,0.134-0.117,0.202c-0.026-0.027-0.052-0.055-0.078-0.082C22.782,3.463,22.784,3.348,22.939,3.417z
			 M23.124,3.019c-0.08,0.173-0.13,0.282-0.18,0.39C22.893,3.265,22.921,3.147,23.124,3.019z M23.018,7.153
			C23.01,7.135,23.002,7.117,22.995,7.1c-0.019,0.008-0.038,0.017-0.058,0.025c0.008,0.017,0.014,0.044,0.023,0.046
			C22.979,7.173,22.999,7.16,23.018,7.153z M22.967,12.198c0.017,0.006,0.032,0.018,0.048,0.028
			c-0.015,0.011-0.03,0.029-0.046,0.029c-0.01,0-0.02-0.026-0.03-0.041C22.948,12.208,22.959,12.196,22.967,12.198z M22.939,3.417
			c0,0,0.001-0.001,0.001-0.002c0,0,0.005,0.005,0.003,0.004C22.942,3.417,22.941,3.417,22.939,3.417z M22.941,3.414
			c0.001-0.001,0.001-0.003,0.002-0.005c0.001,0.004,0,0.007,0.002,0.01L22.941,3.414z M22.959,12.473
			c0.008-0.018,0.034-0.026,0.053-0.039c0.005,0.021,0.019,0.046,0.013,0.063c-0.006,0.016-0.034,0.023-0.052,0.035
			C22.968,12.512,22.953,12.487,22.959,12.473z M23.281,10.902c-0.021,0.131-0.04,0.243-0.058,0.354
			C23.098,10.989,23.098,10.989,23.281,10.902z M23.171,14.322c0.016-0.012,0.032-0.024,0.048-0.037
			c0.017,0.011,0.033,0.022,0.05,0.034c-0.016,0.013-0.032,0.035-0.048,0.035C23.206,14.355,23.188,14.334,23.171,14.322z
			 M23.269,10.583c-0.012-0.108-0.023-0.217-0.039-0.355C23.508,10.342,23.248,10.476,23.269,10.583z M23.3,2.713
			c0.009,0.004,0.018,0.008,0.026,0.013c-0.013,0.006-0.026,0.011-0.04,0.018C23.291,2.733,23.295,2.723,23.3,2.713z M23.547,2.45
			c-0.033,0.038-0.073,0.07-0.111,0.104c-0.016-0.02-0.032-0.04-0.048-0.059c0.035-0.038,0.069-0.075,0.104-0.112
			C23.512,2.406,23.55,2.446,23.547,2.45z M23.627,9.506c0.003-0.001-0.012-0.04-0.019-0.061C23.573,9.462,23.537,9.48,23.5,9.497
			c0.006,0.016,0.013,0.032,0.02,0.048C23.556,9.533,23.593,9.522,23.627,9.506z M23.71,9.288c0-0.009,0.003-0.021-0.001-0.025
			c-0.005-0.005-0.016-0.005-0.025-0.007c0.001,0.014,0.001,0.028,0.002,0.042C23.695,9.294,23.703,9.291,23.71,9.288z
			 M23.783,1.912c0.128-0.1,0.243-0.191,0.358-0.281c-0.061,0.135-0.121,0.27-0.182,0.406C23.915,2.006,23.87,1.975,23.783,1.912
			L23.783,1.912z M23.961,2.038c0,0.001,0.002,0.003,0.002,0.005c-0.003,0.001-0.006,0.002-0.009,0.003
			C23.955,2.047,23.962,2.037,23.961,2.038z M23.96,2.037c0,0,0.001,0,0.001,0.001c0.001-0.001-0.006,0.009-0.006,0.008
			C23.958,2.043,23.958,2.04,23.96,2.037z M24.161,1.616c-0.006,0.005-0.013,0.01-0.02,0.015c0.003-0.007,0.006-0.015,0.01-0.021
			L24.161,1.616z M24.162,1.601c0,0.005,0,0.01,0,0.015c0,0-0.01-0.006-0.011-0.007C24.153,1.605,24.158,1.603,24.162,1.601z
			 M24.301,1.506c-0.047,0.032-0.094,0.063-0.14,0.094c0.001-0.051,0.003-0.101,0.005-0.151C24.211,1.468,24.256,1.487,24.301,1.506
			z M24.303,1.507c0,0-0.001,0-0.001-0.001c0.001,0,0.001-0.001,0.002-0.001c0.005-0.096,0.011-0.191,0.017-0.287
			c0.025,0.005,0.051,0.009,0.077,0.013c-0.031,0.092-0.062,0.183-0.093,0.273C24.304,1.503,24.304,1.508,24.303,1.507
			c0.001,0,0.001-0.001,0.001-0.001C24.303,1.507,24.303,1.508,24.303,1.507z M24.367,14.202c0.02,0.006,0.039,0.012,0.059,0.018
			c-0.014,0.019-0.024,0.044-0.042,0.053c-0.01,0.005-0.033-0.019-0.051-0.029C24.344,14.23,24.355,14.216,24.367,14.202z
			 M24.577,0.743L24.577,0.743C24.578,0.743,24.578,0.743,24.577,0.743C24.577,0.743,24.577,0.743,24.577,0.743
			c0,0.094,0,0.189,0,0.283c-0.018,0-0.036,0-0.053-0.001C24.542,0.932,24.559,0.838,24.577,0.743z M24.578,0.743
			c0.191-0.188,0.381-0.376,0.572-0.564C25.025,0.436,24.972,0.77,24.578,0.743z M25.839,14.207c0-0.12,0.013-0.249-0.168-0.261
			C25.645,14.114,25.647,14.118,25.839,14.207z M25.926,14.045c0.658,0.031,1.315,0.039,1.972-0.002
			C27.241,13.896,26.583,13.97,25.926,14.045z M28.154,13.985c-0.005,0-0.011-0.015-0.017-0.023
			c0.018-0.008,0.036-0.015,0.054-0.023c0.008,0.013,0.016,0.026,0.023,0.039C28.194,13.98,28.174,13.985,28.154,13.985z"/>
	</g>
</g>
</svg>
